<?xml version="1.0" encoding="utf-8"?>
<!-- Generator: Adobe Illustrator 16.2.0, SVG Export Plug-In . SVG Version: 6.00 Build 0)  -->
<!DOCTYPE svg PUBLIC "-//W3C//DTD SVG 1.1//EN" "http://www.w3.org/Graphics/SVG/1.1/DTD/svg11.dtd">
<svg version="1.1" id="Layer_1" xmlns="http://www.w3.org/2000/svg" xmlns:xlink="http://www.w3.org/1999/xlink" x="0px" y="0px"
	 width="296.5px" height="56.75px" viewBox="0 0 296.5 56.75" enable-background="new 0 0 296.5 56.75" xml:space="preserve">
<g>
	<g>
		<path fill="#E36F1E" d="M196.826,34.01c0-1.503,1.22-2.723,2.724-2.723c1.502,0,2.723,1.22,2.723,2.723s-1.221,2.722-2.723,2.722
			C198.046,36.731,196.826,35.513,196.826,34.01L196.826,34.01z"/>
	</g>
	<g>
		<circle fill="#E36F1E" cx="47.864" cy="20.486" r="3.228"/>
		<path fill="#E36F1E" d="M34.706,16.857c0,0-0.623-0.645-1.468-0.727c-0.845,0.082-1.468,0.727-1.468,0.727L13.177,36.754
			l7.95-1.391c0,0,8.582-8.891,10.402-10.766c0.593-0.61,1.183-0.807,1.71-0.8c0.528-0.007,1.118,0.19,1.71,0.8
			c1.821,1.875,10.402,10.766,10.402,10.766l7.95,1.391L34.706,16.857z"/>
	</g>
</g>
<g>
	<g>
		<path d="M33.161,53.236h-0.072c0,0-0.001,0-0.003,0c-1.255,0-2.463-0.207-3.654-0.618C25.427,51.24,8.221,42.955,7.491,42.603
			c-0.144-0.083-2.386-1.437-3.677-3.591c-1.182-1.974-1.127-4.329-1.124-4.429L2.689,22.185c-0.002-0.081-0.057-2.437,1.125-4.41
			c1.292-2.154,3.534-3.508,3.628-3.564c0.779-0.379,17.985-8.664,21.99-10.043c1.192-0.41,2.4-0.618,3.593-0.618h0.136
			c1.193,0,2.401,0.208,3.593,0.618c4.005,1.379,21.211,9.664,21.941,10.017c0.144,0.083,2.386,1.437,3.677,3.59
			c1.182,1.974,1.127,4.33,1.124,4.429l0,12.398c0.002,0.081,0.057,2.437-1.124,4.41c-1.292,2.154-3.534,3.508-3.629,3.564
			c-0.779,0.379-17.985,8.664-21.99,10.042C35.562,53.029,34.354,53.236,33.161,53.236z M8.029,15.301
			c0.005,0-2.031,1.241-3.152,3.111c-0.991,1.655-0.949,3.734-0.949,3.756L3.93,34.602c-0.001,0.037-0.043,2.117,0.948,3.772
			c1.126,1.881,3.18,3.126,3.2,3.138c0.129,0.06,17.822,8.578,21.758,9.935c1.061,0.364,2.133,0.55,3.188,0.55h0.136
			c1.055,0,2.128-0.186,3.189-0.55c3.935-1.355,21.622-9.873,21.807-9.961h0c-0.005,0,2.031-1.241,3.152-3.111
			c0.997-1.666,0.949-3.733,0.948-3.754l-0.001-12.436c0.001-0.038,0.043-2.117-0.948-3.773c-1.132-1.889-3.179-3.125-3.2-3.137
			c-0.13-0.06-17.823-8.579-21.759-9.935c-1.061-0.365-2.134-0.55-3.189-0.55h-0.136c-1.055,0-2.128,0.185-3.189,0.55
			C25.9,6.696,8.213,15.212,8.029,15.301L8.029,15.301z"/>
	</g>
	<g>
		<g>
			<g>
				<path d="M288.038,26.714c-1.945,0-3.526-1.581-3.526-3.526s1.581-3.527,3.526-3.527c1.944,0,3.526,1.582,3.526,3.527
					S289.982,26.714,288.038,26.714z M288.038,19.961c-1.778,0-3.227,1.447-3.227,3.227c0,1.779,1.448,3.226,3.227,3.226
					s3.227-1.447,3.227-3.226C291.265,21.409,289.816,19.961,288.038,19.961z"/>
			</g>
			<g>
				<g>
					<path d="M287.144,21.584c0.216-0.039,0.532-0.069,0.823-0.069c0.457,0,0.76,0.089,0.961,0.271
						c0.162,0.148,0.261,0.374,0.261,0.635c0,0.434-0.277,0.725-0.622,0.843v0.015c0.251,0.088,0.406,0.325,0.483,0.67
						c0.11,0.463,0.188,0.783,0.258,0.912h-0.445c-0.054-0.099-0.127-0.379-0.216-0.793c-0.099-0.458-0.281-0.631-0.671-0.646
						h-0.403v1.439h-0.429V21.584z M287.572,23.097h0.438c0.457,0,0.748-0.251,0.748-0.63c0-0.429-0.31-0.616-0.762-0.616
						c-0.209,0-0.352,0.015-0.425,0.035V23.097z"/>
				</g>
			</g>
		</g>
		<g>
			<path d="M96.759,35.913c-0.174-0.516-8.548-15.519-8.548-15.519s-0.267-0.473-0.773-0.473h-2.685h-2.685
				c-0.507,0-0.773,0.473-0.773,0.473s-8.373,15.003-8.547,15.519c-0.325,0.981,0.807,0.951,0.807,0.951h3.929
				c0.419-0.059,0.654-0.415,0.654-0.415s1.017-1.928,1.161-2.116c0.296-0.391,0.748-0.328,0.748-0.328h4.707h4.708
				c0,0,0.451-0.063,0.748,0.328c0.145,0.188,1.161,2.116,1.161,2.116s0.236,0.356,0.655,0.415h3.929
				C95.952,36.864,97.083,36.895,96.759,35.913z M87.525,29.983h-2.772h-2.771c0,0-0.463-0.029-0.167-0.591
				c0.263-0.498,2.517-4.857,2.517-4.857s0.19-0.248,0.421-0.248c0.231,0,0.421,0.248,0.421,0.248s2.254,4.359,2.517,4.857
				C87.987,29.954,87.525,29.983,87.525,29.983z"/>
		</g>
		<g>
			<path d="M100.046,36.864c-0.489,0-0.885-0.396-0.885-0.884V20.807c0-0.49,0.396-0.886,0.885-0.886h3.375
				c0.49,0,0.886,0.396,0.886,0.886v11.059c0,0.49,0.396,0.886,0.885,0.886h9.53c0.49,0,0.886,0.396,0.886,0.886v2.343
				c0,0.488-0.396,0.884-0.886,0.884H100.046z"/>
		</g>
		<g>
			<path d="M141.808,35.913c-0.175-0.516-8.548-15.519-8.548-15.519s-0.267-0.473-0.772-0.473h-2.685h-2.686
				c-0.506,0-0.772,0.473-0.772,0.473s-8.374,15.003-8.548,15.519c-0.325,0.981,0.807,0.951,0.807,0.951h3.929
				c0.419-0.059,0.655-0.415,0.655-0.415s1.015-1.928,1.161-2.116c0.297-0.391,0.747-0.328,0.747-0.328h4.708h4.707
				c0,0,0.45-0.063,0.747,0.328c0.146,0.188,1.16,2.116,1.16,2.116s0.236,0.356,0.655,0.415h3.929
				C141.001,36.864,142.132,36.895,141.808,35.913z M132.574,29.983h-2.771h-2.772c0,0-0.462-0.029-0.165-0.591
				c0.262-0.498,2.517-4.857,2.517-4.857s0.188-0.248,0.421-0.248c0.231,0,0.42,0.248,0.42,0.248s2.254,4.359,2.517,4.857
				C133.036,29.954,132.574,29.983,132.574,29.983z"/>
		</g>
		<g>
			<path d="M164.603,28.392v-5.218c0-1.793-1.449-3.243-3.243-3.243l-14.853-0.009v0.009h-1.687c-0.489,0-0.886,0.396-0.886,0.885
				V35.98c0,0.488,0.396,0.884,0.886,0.884h3.372c0.49,0,0.886-0.396,0.886-0.884v-2.542c0-0.489,0.395-0.884,0.885-0.884h8.611
				c0.49,0,0.885,0.395,0.885,0.884v2.542c0,0.488,0.396,0.884,0.885,0.884h3.374c0.488,0,0.885-0.396,0.885-0.884v-2.584
				c0-1.794-1.449-3.244-3.243-3.244h1.482C163.814,30.152,164.603,29.365,164.603,28.392z M149.214,25.335
				c0-0.489,0.396-0.884,0.884-0.884h8.243c0.49,0,0.887,0.395,0.887,0.884v2.109c0,0.49-0.396,0.885-0.887,0.885h-8.243
				c-0.487,0-0.884-0.395-0.884-0.885V25.335z"/>
		</g>
		<g>
			<path d="M193.91,19.922h-3.186h-0.519h-2.851c0,0-1.905-0.076-2.879,2.148l-2.962,6.842c0,0-0.468,1.262-0.848,1.262
				s-0.848-1.262-0.848-1.262l-2.963-6.842c-0.974-2.224-2.878-2.148-2.878-2.148h-2.852h-0.52h-3.184
				c-0.486,0-0.88,0.393-0.88,0.879v15.064c0,0.485,0.394,0.878,0.88,0.878h3.703c0.485,0,0.879-0.393,0.879-0.878V25.021
				c0-0.913,0.634,0.246,0.634,0.246l5.072,9.817c0.95,1.78,1.659,1.779,1.659,1.779h1.296h1.295c0,0,0.709,0.001,1.659-1.779
				l5.072-9.817c0,0,0.634-1.159,0.634-0.246v10.844c0,0.485,0.393,0.878,0.879,0.878h3.704c0.485,0,0.878-0.393,0.878-0.878V20.801
				C194.788,20.315,194.396,19.922,193.91,19.922z"/>
		</g>
		<g>
			<g>
				<path d="M247.427,19.921h-7.631h-0.043h-7.631c-2.153-0.001-3.902,1.74-3.905,3.895v9.144c-0.001,2.15,1.741,3.904,3.895,3.905
					h7.642h0.043h7.643c2.153-0.001,3.896-1.755,3.894-3.905v-9.144C251.331,21.661,249.58,19.92,247.427,19.921z M243.411,24.188
					c1.344-0.002,2.438,1.087,2.438,2.434v3.654c0.003,1.352-1.088,2.444-2.432,2.445h-7.286c-1.344-0.001-2.434-1.094-2.433-2.445
					v-3.654c0.001-1.347,1.095-2.436,2.439-2.434H243.411z"/>
			</g>
		</g>
		<g>
			<path d="M280.419,19.922h-3.186h-0.519h-2.853c0,0-1.903-0.076-2.877,2.148l-2.962,6.842c0,0-0.468,1.262-0.848,1.262
				c-0.382,0-0.85-1.262-0.85-1.262l-2.961-6.842c-0.974-2.224-2.878-2.148-2.878-2.148h-2.853h-0.519h-3.184
				c-0.485,0-0.88,0.393-0.88,0.879v15.064c0,0.485,0.395,0.878,0.88,0.878h3.702c0.486,0,0.879-0.393,0.879-0.878V25.021
				c0-0.913,0.633,0.246,0.633,0.246l5.074,9.817c0.949,1.78,1.659,1.779,1.659,1.779h1.296h1.294c0,0,0.71,0.001,1.66-1.779
				l5.073-9.817c0,0,0.633-1.159,0.633-0.246v10.844c0,0.485,0.393,0.878,0.879,0.878h3.704c0.485,0,0.878-0.393,0.878-0.878V20.801
				C281.297,20.315,280.904,19.922,280.419,19.922z"/>
		</g>
		<g>
			<path d="M209.431,25.541c0-1.495,2.394-1.551,2.394-1.551s6.031,0,7.404,0c1.376,0,1.434,0.896,1.793,1.607
				c0.353,0.721,0.832,0.662,0.832,0.662s2.092,0,3.167,0c1.078,0,1.018-1.614,1.018-1.614s0.001,0.021,0-1.909
				c-0.002-2.81-4.839-2.809-4.839-2.809s-7.947-0.01-12.481,0c-4.54,0.011-4.54,5.076-4.54,5.076v6.78c0,0,0,5.064,4.54,5.075
				c4.554,0.011,12.481,0,12.481,0s4.839,0.001,4.839-2.809c0-1.909,0-1.909,0-1.909s0.061-1.614-1.018-1.614
				c-1.075,0-3.167,0-3.167,0s-0.479-0.059-0.832,0.662c-0.359,0.712-0.417,1.607-1.793,1.607c-1.373,0-7.404,0-7.404,0
				s-2.394-0.056-2.394-1.551V25.541z"/>
		</g>
	</g>
</g>
</svg>
